@startuml RequirementStates
title Lifecycle of a Requirement (IR-Board)

state PendingApproval{
  PendingApproval : Flagged due to changes in 
  PendingApproval : linked Stakeholders/Docs/Requirements
}

state Approved
state Finished: Implemented

state Deactivated : Read-only mode

state Removed: Archived, hidden from view


' Transiciones
[*] -down-> PendingApproval : Requirement is created and saved

PendingApproval -right-> Approved 
Approved --> PendingApproval : modified

Approved -right-> Finished : completed
Finished ---> PendingApproval : modified

PendingApproval -> Deactivated 
Approved --> Deactivated 
Finished ---> Deactivated 
Deactivated --> PendingApproval

Deactivated -down-> Removed
Removed --> Deactivated

Removed -down->[*]

@enduml